<svg xmlns="http://www.w3.org/2000/svg" viewBox="0 0 44 44"><title>paper-airplane@1x</title><g id="Layer_2" data-name="Layer 2"><g id="General"><g id="Paper_Airplane_2x.png" data-name="Paper Airplane@2x.png"><path d="M9.71,29.71l1-1a1,1,0,1,0-1.41-1.41l-1,1a1,1,0,1,0,1.41,1.41ZM44,1a1,1,0,0,0-1-1,1,1,0,0,0-.43.1h0l-42,18h0l0,0h0a1,1,0,0,0,.15,1.84v0l16.52,6.8L24,43.28h0a1,1,0,0,0,1.84.15h0l0,0h0l18-42h0A1,1,0,0,0,44,1ZM3.57,19l35-15L17.76,24.83ZM25,40.43,19.17,26.24,40,5.38ZM16,29a1,1,0,0,0-1.71-.71l-10,10a1,1,0,0,0,1.41,1.41l10-10A1,1,0,0,0,16,29Zm0,4a1,1,0,0,0-.71.29l-3,3a1,1,0,1,0,1.41,1.41l3-3A1,1,0,0,0,16,33Z"/></g></g></g></svg>